<svg xmlns="http://www.w3.org/2000/svg" width="600" height="400" viewBox="0 0 600 400"><rect width="100%" height="100%" fill="#DDDDDD"/><path fill="#999999" d="M158.025 195.34q0 4.61-1.54 8.47-1.53 3.86-4.32 6.64-2.78 2.79-6.7 4.32-3.91 1.54-8.7 1.54h-15.97v-41.93h15.97q4.79 0 8.7 1.55 3.92 1.55 6.7 4.32 2.79 2.77 4.32 6.62 1.54 3.86 1.54 8.47m-8 0q0-3.45-.92-6.19-.91-2.74-2.64-4.64-1.72-1.9-4.17-2.91-2.45-1.02-5.53-1.02h-8.14v29.52h8.14q3.08 0 5.53-1.01 2.45-1.02 4.17-2.92 1.73-1.9 2.64-4.64.92-2.74.92-6.19m19.4 2.67h13.51q0-1.39-.39-2.62-.39-1.24-1.17-2.16-.79-.93-1.99-1.47t-2.8-.54q-3.1 0-4.89 1.77-1.78 1.77-2.27 5.02m18.27 4.32h-18.42q.18 2.29.82 3.96.63 1.67 1.68 2.76 1.04 1.08 2.48 1.62 1.43.54 3.17.54t3-.41q1.27-.41 2.21-.9t1.65-.9q.71-.4 1.38-.4.9 0 1.33.66l2.06 2.61q-1.19 1.39-2.67 2.34-1.48.94-3.09 1.51-1.6.56-3.27.79t-3.24.23q-3.1 0-5.77-1.02-2.66-1.03-4.64-3.05-1.97-2.02-3.1-4.99t-1.13-6.89q0-3.04.99-5.72.98-2.69 2.82-4.67 1.84-1.99 4.5-3.15 2.65-1.16 5.99-1.16 2.81 0 5.19.9t4.09 2.63q1.71 1.72 2.68 4.23t.97 5.73q0 1.62-.35 2.19-.35.56-1.33.56m16.3 13.98h-7.17v-24.36l-2.58-.41q-.84-.17-1.35-.59-.5-.42-.5-1.2v-2.93h4.43v-2.21q0-2.55.77-4.58t2.21-3.45q1.43-1.42 3.49-2.18 2.06-.75 4.64-.75 2.06 0 3.83.55l-.15 3.6q-.03.4-.23.65t-.53.38q-.34.13-.77.17-.44.04-.93.04-1.28 0-2.28.28t-1.69.96q-.7.68-1.06 1.8-.37 1.11-.37 2.77v1.97h7.75v5.1h-7.51zm27.26-7.69v-5.01q-3.11.14-5.22.53-2.12.4-3.4 1-1.27.61-1.82 1.43-.55.81-.55 1.76 0 1.89 1.11 2.7 1.12.81 2.92.81 2.2 0 3.81-.79 1.61-.8 3.15-2.43m-15.14-15.63-1.28-2.29q5.14-4.7 12.36-4.7 2.61 0 4.67.86 2.05.86 3.48 2.38 1.42 1.52 2.16 3.64.74 2.11.74 4.64v18.79h-3.25q-1.02 0-1.57-.3-.55-.31-.87-1.24l-.64-2.14q-1.13 1.01-2.2 1.78t-2.23 1.29-2.48.8q-1.32.27-2.92.27-1.88 0-3.48-.5-1.59-.51-2.75-1.53-1.16-1.01-1.8-2.52t-.64-3.51q0-1.13.38-2.25.38-1.11 1.23-2.13.86-1.01 2.22-1.91t3.35-1.57q1.99-.66 4.62-1.08 2.64-.42 6.04-.51v-1.74q0-2.99-1.28-4.42-1.28-1.44-3.68-1.44-1.74 0-2.89.41-1.14.4-2.01.91t-1.58.91q-.71.41-1.58.41-.76 0-1.28-.39t-.84-.92m47.33-6.43h7.16v29.75h-4.38q-1.42 0-1.8-1.31l-.49-2.37q-1.83 1.85-4.03 3-2.21 1.14-5.19 1.14-2.44 0-4.31-.82-1.87-.83-3.15-2.34-1.27-1.51-1.92-3.58-.66-2.07-.66-4.57v-18.9h7.17v18.9q0 2.73 1.26 4.22 1.26 1.5 3.78 1.5 1.86 0 3.48-.83 1.63-.83 3.08-2.28zm14.32-13.34h7.17v43.09h-7.17zm24.25 43.55q-3.89 0-5.96-2.19-2.08-2.19-2.08-6.04v-16.62h-3.04q-.58 0-.99-.38-.4-.37-.4-1.13v-2.84l4.78-.78 1.51-8.12q.14-.58.55-.9t1.04-.32h3.72v9.37h7.94v5.1h-7.94v16.12q0 1.4.68 2.18t1.87.78q.67 0 1.12-.16.44-.16.78-.33.33-.17.59-.33t.52-.16q.32 0 .53.16.2.16.43.47l2.15 3.48q-1.57 1.31-3.6 1.98-2.03.66-4.2.66m34.71-42.39v41.93h-7.83v-41.93zm15.4 41.93h-7.16v-29.75h4.37q1.4 0 1.83 1.3l.47 2.2q.78-.87 1.63-1.59.86-.73 1.83-1.25t2.09-.82q1.12-.31 2.45-.31 2.81 0 4.63 1.52 1.81 1.53 2.71 4.05.69-1.48 1.74-2.54 1.04-1.06 2.29-1.72 1.24-.67 2.65-.99t2.83-.32q2.46 0 4.38.76 1.91.75 3.22 2.2 1.3 1.45 1.98 3.54t.68 4.78v18.94h-7.16v-18.94q0-2.84-1.25-4.27-1.24-1.44-3.65-1.44-1.1 0-2.04.38-.95.37-1.66 1.08t-1.11 1.79q-.41 1.07-.41 2.46v18.94h-7.19v-18.94q0-2.98-1.2-4.35-1.21-1.36-3.53-1.36-1.56 0-2.91.77t-2.51 2.1zm57.13-7.69v-5.01q-3.1.14-5.22.53-2.12.4-3.39 1-1.28.61-1.83 1.43-.55.81-.55 1.76 0 1.89 1.11 2.7 1.12.81 2.92.81 2.2 0 3.81-.79 1.61-.8 3.15-2.43m-15.14-15.63-1.28-2.29q5.14-4.7 12.36-4.7 2.61 0 4.67.86t3.48 2.38 2.16 3.64q.74 2.11.74 4.64v18.79h-3.25q-1.02 0-1.57-.3-.55-.31-.87-1.24l-.63-2.14q-1.14 1.01-2.21 1.78t-2.23 1.29-2.48.8q-1.32.27-2.92.27-1.88 0-3.48-.5-1.59-.51-2.75-1.53-1.16-1.01-1.8-2.52t-.64-3.51q0-1.13.38-2.25.38-1.11 1.23-2.13.86-1.01 2.22-1.91t3.35-1.57q1.99-.66 4.63-1.08t6.03-.51v-1.74q0-2.99-1.28-4.42-1.27-1.44-3.68-1.44-1.74 0-2.89.41-1.14.4-2.01.91t-1.58.91q-.71.41-1.58.41-.76 0-1.28-.39t-.84-.92m39.73 7.72q1.33 0 2.32-.36.99-.37 1.64-1 .65-.64.99-1.54.33-.9.33-1.97 0-2.21-1.32-3.5t-3.96-1.29-3.96 1.29-1.32 3.5q0 1.04.34 1.94.33.9.98 1.55t1.66 1.02q1 .36 2.3.36m8.09 16.93q0-.87-.52-1.42t-1.42-.85q-.9-.31-2.1-.45-1.21-.15-2.56-.22-1.34-.07-2.78-.13t-2.8-.23q-1.19.66-1.93 1.56t-.74 2.09q0 .79.4 1.47.39.68 1.24 1.17.86.49 2.22.77t3.34.28q2 0 3.45-.31 1.45-.3 2.39-.84t1.38-1.28q.43-.74.43-1.61m-1.42-30.07h8.56v2.67q0 1.27-1.54 1.56l-2.67.5q.61 1.53.61 3.36 0 2.21-.88 3.99-.89 1.78-2.46 3.03-1.56 1.25-3.69 1.93t-4.6.68q-.87 0-1.68-.09-.81-.08-1.6-.23-1.39.84-1.39 1.89 0 .9.83 1.32.82.42 2.19.59 1.36.17 3.1.22 1.74.04 3.57.19 1.82.14 3.56.5 1.74.37 3.11 1.15 1.36.78 2.19 2.13.82 1.35.82 3.47 0 1.97-.97 3.82-.97 1.86-2.81 3.31t-4.52 2.33q-2.69.89-6.11.89-3.36 0-5.86-.65-2.49-.66-4.14-1.74-1.66-1.09-2.47-2.51t-.81-2.96q0-2.09 1.26-3.49 1.26-1.41 3.47-2.25-1.19-.61-1.89-1.63-.7-1.01-.7-2.66 0-.67.25-1.38t.73-1.41q.47-.69 1.2-1.32.72-.62 1.71-1.11-2.26-1.22-3.55-3.25t-1.29-4.76q0-2.2.88-3.99.89-1.78 2.47-3.04t3.74-1.93 4.71-.67q1.91 0 3.6.4 1.68.39 3.07 1.14m18.73 10.44h13.52q0-1.39-.39-2.62-.39-1.24-1.18-2.16-.78-.93-1.98-1.47-1.21-.54-2.8-.54-3.11 0-4.89 1.77t-2.28 5.02m18.27 4.32h-18.41q.17 2.29.81 3.96t1.68 2.76q1.05 1.08 2.48 1.62 1.44.54 3.18.54t3-.41 2.2-.9q.95-.49 1.66-.9.71-.4 1.37-.4.9 0 1.34.66l2.06 2.61q-1.19 1.39-2.67 2.34-1.48.94-3.09 1.51-1.61.56-3.28.79-1.66.23-3.23.23-3.1 0-5.77-1.02-2.67-1.03-4.64-3.05t-3.1-4.99-1.13-6.89q0-3.04.98-5.72.99-2.69 2.83-4.67 1.84-1.99 4.49-3.15 2.66-1.16 5.99-1.16 2.82 0 5.19.9 2.38.9 4.09 2.63 1.71 1.72 2.69 4.23.97 2.51.97 5.73 0 1.62-.35 2.19-.35.56-1.34.56"/></svg>