<svg fill="currentColor" height="32" viewBox="0 0 32 32" width="32" xmlns="http://www.w3.org/2000/svg">
  <path
    d="M16 14C11.0369 14 3.99999 21.6725 3.99999 26.5156C3.99999 28.6968 5.67562 30 8.48374 30C11.5362 30 13.5519 28.4325 16 28.4325C18.4694 28.4325 20.4906 30 23.5162 30C26.3244 30 28 28.6968 28 26.5156C28 21.6725 20.9631 14 16 14ZM6.79499 13.2118C6.14499 11.0462 4.14249 9.6437 2.32249 10.0787C0.502491 10.5137 -0.445634 12.6218 0.204366 14.7875C0.854366 16.9531 2.85687 18.3556 4.67687 17.9206C6.49687 17.4856 7.44499 15.3775 6.79499 13.2118ZM12.09 11.9131C14.0237 11.4043 14.9912 8.79183 14.2512 6.07808C13.5112 3.36433 11.3437 1.57745 9.40999 2.0862C7.47624 2.59495 6.50874 5.20745 7.24874 7.9212C7.98874 10.635 10.1569 12.4225 12.09 11.9131ZM29.6769 10.0793C27.8569 9.64433 25.855 11.0468 25.2044 13.2125C24.5544 15.3781 25.5025 17.4862 27.3225 17.9212C29.1425 18.3562 31.1444 16.9537 31.795 14.7881C32.445 12.6225 31.4969 10.5143 29.6769 10.0793ZM19.91 11.9131C21.8437 12.4218 24.0112 10.635 24.7512 7.9212C25.4912 5.20745 24.5237 2.59558 22.59 2.0862C20.6562 1.57683 18.4887 3.36433 17.7487 6.07808C17.0087 8.79183 17.9762 11.4043 19.91 11.9131Z"
    fill="currentColor" />
</svg>
